<mxfile host="app.diagrams.net" modified="2021-06-16T17:22:27.248Z" agent="5.0 (Windows NT 10.0; Win64; x64) AppleWebKit/537.36 (KHTML, like Gecko) Chrome/91.0.4472.101 Safari/537.36" etag="GKXZZalBkjLxP_pdV69m" version="14.7.10" type="github">
  <diagram id="u-BFL1qgk-sDK1z5IxGR" name="Page-1">
    <mxGraphModel dx="1422" dy="762" grid="1" gridSize="10" guides="1" tooltips="1" connect="1" arrows="1" fold="1" page="1" pageScale="1" pageWidth="850" pageHeight="1100" math="0" shadow="0">
      <root>
        <mxCell id="0" />
        <mxCell id="1" parent="0" />
        <mxCell id="xvntZWfGnCIacBmoKaAR-24" value="" style="rounded=0;whiteSpace=wrap;html=1;fontColor=#330000;fillColor=#CCCCCC;" vertex="1" parent="1">
          <mxGeometry x="70" y="355" width="380" height="465" as="geometry" />
        </mxCell>
        <mxCell id="xvntZWfGnCIacBmoKaAR-3" value="" style="shape=image;verticalLabelPosition=bottom;labelBackgroundColor=#ffffff;verticalAlign=top;aspect=fixed;imageAspect=0;image=data:image/png,iVBORw0KGgoAAAANSUhEUgAAAx8AAAEECAYAAABJKonUAAAgAElEQVR4Ae3dd5wUVb73cf64+7rPs/dZ7971ubsG9or6GFgT4oqggohIDmYUEUXBhNlFMKIYQERXDIiAoqhgQhfMqIhpEUWRYFpEcs5piOPveX1rOEN1TXdP9VR1T3fPp16voae7q06d866m+3zn1KmuZSwIIIAAAggggAACCCCAQJYE+vfvb9dcc4316dPHamVpHxSLAAIIIIAAAggggAACCNh3331nl1xyifXu3ZvwwesBAQQQQAABBBBAAAEEsiewY8cO69q1q910002Ej+wxUzICCCCAAAIIIIAAAghIoEuXLtarVy/CBy8HBBBAAAEEEEAAAQQQyK7A+eefbzfeeCPhI7vMlI4AAggggAACCCCAAAKdO3e2G264gfDBSwEBBBBAAAEEEEAAAQSyK3DuuefaddddR/jILjOlI4AAAggggAACCCCAQKdOnezaa68lfPBSQAABBBBAAAEEEEAAgewKnHPOOXb11VcTPrLLTOkIIIAAAggggAACCCBw9tln21VXXUX44KWAAAIIIIAAAggggAAC2RU488wz7corryR8ZJeZ0hFAAAEEEEAAAQQQQOCMM86wK664gvDBSwEBBBBAAAEEEEAAAQSyK3D66afb5ZdfTvjILjOlI4AAAggggAACCCCAwGmnnWaXXXYZ4YOXAgIIIIAAAggggAACCGRXoGPHjnbppZcSPrLLTOkIIIAAAggggAACCCCg8NGjRw/CBy8FBBBAAAEEEEAAAQQQyK5Ahw4drHv37oSP7DJTOgIIIIAAAggggAACCLRv394uueQSwgcvBQQQQAABBBBAAAEEEMiuAOEju76UjgACCCCAAAIIIIAAArsEjmnaxi46ty0jH7wiEEAAAQQQQAABBBBAILsCdQ461I5q2Cp6+Pjqmxm23xGNU/4c3/Js6/m3O+zdDz62bdu2x9Yqt9/BQ5+JrcywBX0783s7ttlpduNt99nmki1hN8vKeqWlpbZu/QZbs3a9bd8en29WKkuhCCCAAAIIIIAAAjVS4NADD7ITT7s4vvBx3c1325Cnnq/wc9+DQ+zk9ud74eT6W+6x1WvWxgJeXeFjZ2mpPfjYCK89CiBTpn4bS3uqWohCxwWX3ejVRyYs0QRWrV5jEz+ZbJs2l0QriK0RQAABBBBAAAEEygWOPPAwa3Fet/jCx+tvTigvPPiLRjweH/6c10HWrTrwUZfqCh9z5s63Vmd1s+7X3GwdO19mdw4YHOuITqYuhI9MxVKv7ywV5vQ7CwIIIIAAAggggEA8AjkNH6ry6rXrrOvlf7NuPW/yThOK2ozqCB+//vqrDX/2Re+Uq2kzvvN+P6VjF/vp51+iNoft80CA8JEHB4EqIIAAAggggEBRCuQ8fGzZutVu7veAN2qg0YOoS3WEj+UrVtn5Pa4vn+uh0KHwoUCiYMJS2AKEj8I+ftQeAQQQQAABBPJXIOfhY9OmzaY5H+q8J5v3oVOzJn32hV154x121IltvVO0zul2tT0zemzSU2DShQ8Fge9/nG039R1gmvCuCfE6RUplbdi4qcpH5Z33P/bK0q0W1VmnXansBYuWpCzX1adv/4fL66N5ML373m9ffzvLNGncv2SyfmWhTtZDRjxvbc6+2Ku79qv7ejyZoSat9xv4qHW6+BpbtmKlt57Wd/N2VI7ur12XeFpScLuFi5danzsHesfyLw1besd15vc/eSFtx86dJsPO3a/z6qRjpH0uWbrcz1D+u/MIczyD9XDtT1d/55DqwgnpTiksryS/IIAAAggggAACCKQUyHn4+HzK197pSsnmSOiKUXcNGFweEh54ZLg3cf3qm+4ydVzVuZ/x3Y8JjXEdxuDVrtSxVcjQdmdf2NOeePoFe+OdD+3eBx/3Ov6aq7Fy1eqEssLc0RWlLr3uVi88aQTELZ99MdXb14tj33QPVbh9872JXie85RkXmmubbnVfHd5hz7yYMA8mk/XThY/Zc+Z5dtrHxVf1tseGjzJ5yeXMrlea6qzngoa6r3ktukKZ7IPbahuFRJn4F/92Kl9hUxch0IiXAqVCxuQvv/Ee0+86JnpeZalM+QaDaVWOp78eYer/y/yFXj3+PuRpbyRLo1n63V1A4Zvps/zN5HcEEEAAAQQQQACBDAXatm1r3brFOOF89KvjvREKnbri/1mybIXXydVfntURVIfYv+iv2k89/4rX+dRkdP/lePWcQos6qsGOaarw8cnnX3ph4LZ7HqpwGdwfZ//i1eGeQY8l7Mdfn1S/u5ChdqpebnGhRPULdsa1jn+uy4qViaFHbf3HW+8nXDEr0/VThQ/VRZ162X306eSEOqtDr+Ch51KFD13JSyHlw4//mTAyozrfP/hJb7sJH33mGLxbdfq1XYfzetgXX01LeM4dF70OVK+ly1eUP6/6PPLks16ZblTJPem2y+R4unpkWn9Ou3Lq3CKAAAIIIIAAAvEKxB4+1IlN9aNRiL/d3j/paTWLFi+1My64wgsXyTrv6uirw6+y/ae/JAsfGkHRd28o5CQ7DUplaX6G/qqfybyTyk6vCp6O5T9U7upY+uu/gkJlS6brpwofCgYyS3V1Mbed1lFn3b/ovh7XJYWTXZlMlxdOt12yOTAa0dApd3otKMgFF41sKbj461LV41nV+hM+gkeF+wgggAACCCCAQDwCsYcPnaaiU2qCPyNGveTNF9Dzyb6Qz3VktV6q5Yefframbc/z5gW4L9JLFj5+/mW+dyqT5g+49YJluu0y+X6O6bN+8EYJUnXGgxPR/fvcuHGT9ezV19v+08lfJYwi+Ndzv2e6vgsR/kClkCVvdeaDp6u5/ehWp6OlCxGpjFxA8gcFlec6/cm2c/Vs16m7zZ2/yF8N73dXpj+kVfV4pquHdub2Faw/4aPCYeEBBBBAAAEEEEAgFoHYw4d/VMJfQ3WEX3vjPa+TGzxlSetpO3WAU22vdVxn0d8xdSHC34F0j6m8yn7S7c9ff/elgurI65vNky1uRCXVOqq/5kCoTjrtSKcQaWRCp2Fp2+CSyfquU+8PH8keC+5D952X31CPu867nk+2uOORyXauTqm+Q8OVmewYV3Ys9bz/eFa1/oSPZEebxxBAAAEEEEAAgegCOQsfqqobGdD3fGhOg3/JRvgYOHhYwrwTdSqDP+oMh1l0+pZO4wrTAdY6qeaTaH8aFdKIhK7i5crrdceACpOsVa+w67tOfTGHj0yPJ+EjzCubdRBAAAEEEEAAgdwJ5DR8uNGDZOf75/q0q0yINSqh0RrVW1fjclc/SnV70ZW9vKslhfnSQZ1e9eyY17yyUwUWf11TrZ8sfKjecZx2Vd0jH2FOu/Ibud8JH06CWwQQQAABBBBAID8Echo+1GR1ZNWJ15WS/JOY45xwru/wuOKG21NOOM+U3o3YpLqSVbA8d0WsZBOug+vqfsmWLd53faQ6FSm4TbL1k4UPbecmnKeqi9tOIzCZnD6lst0pUpls5/aXqq2uTP9pV1U9noSP4CuH+wgggAACCCCAQPUK5Dx8uEvSBq9Epb/Sp7rUrog0YVrbdL+6j61avaZcLdV8hQkTP/VCjr7gLvhFeNpYgULfo+G/pG95oYFf3FWs0n2Hh38Td3Wmcy+5pvxSsvqivlf+8bZp5CK46HKzWleByX35Yabru069/7Qr7SfqpXYVSqp75EPtqMrxrGr4cJaauzN12szg4eI+AggggAACCCCAQBUFch4+VE9d0Uqd2uB3OajT7r5kUN/NoM6jTm2q6pcMDh052gsg+h6LW+9+0CtLX7DX49pbvMc150LfwJ1ucUEiGJbSbaPngoFF31OhL9jTj/vSPbXNfcmg6uj/ToxM13cd5mD4UF2ifMlgvoQPfQdIpsezquFDZi7suNeOjtOsH/5V2WHneQQQQAABBBBAAIE0AtUSPtwlc/VdHMHL7mokYtJnX3hfQKeOujq/Cgn6tnJNFg8uqUY+tJ5GU9TxvvuBx7yrS6kslakvtxv/zgcV9h0sW/fdKVSpLq+bbBs9luxUrcVLlnnftN65+3Ve+FF9dNUr1U/1VH39SybrpwsfKlPfrzFkxPPW5uyLPVPtV/f1eCrDqnbe023n6pnJaVfOJNPjma4eKtOd4qX1gktpaanpksg6VjpOCiHfzvwhuBr3EUAAAQQQQAABBDIQiC18ZLBPVs0zARc+0n3HSp5VmeoggAACCCCAAAIIFKAA4aMAD1rcVXaXOdbkdBYEEEAAAQQQQAABBLIlQPjIlmwelasric1fuLjCaV2q4i/zFniT3c/vcb13qlgeVZuqIIAAAggggAACCBSZAOGjyA5osua8/f4kb96C5nvc9+CQ8u8p0eVsNQcmONk9WRk8hgACCCCAAAIIIIBAVAHCR1TBAthek6d/nP2LDXp0uJ12/uVeENEkaoURTXav7IpfBdBEqogAAggggAACCCBQAAKEjwI4SFQRAQQQQAABBBBAAIFiECB8FMNRpA0IIIAAAggggAACCBSAAOGjAA4SVUQAAQQQQAABBBBAoBgECB/FcBRpAwIIIIAAAggggAACBSBA+CiAg0QVEUAAAQQQQAABBBAoBgHCRzEcRdqAAAIIIIAAAggggEABCBA+CuAgUUUEEEAAAQQQQAABBIpBgPBRDEeRNiCAAAIIIIAAAgggUAAChI8COEhUEQEEEEAAAQQQQACBYhAgfBTDUaQNCCCAAAIIIIAAAggUgADhowAOElVEAAEEEEAAAQQQQKAYBAgfxXAUaQMCCCCAAAIIIIAAAgUgQPgogINEFRFAAAEEEEAAAQQQKAYBwkcxHEXagAACCCCAAAIIIIBAAQgQPgrgIFFFBBBAAAEEEEAAAQSKQYDwUQxHkTYggAACCCCAAAIIIFAAAoSPAjhIVBEBBBBAAAEEEEAAgWIQOLFFW+vWrZvVKobG0AYEEEAAAQQQQAABBBDIX4EDDjrGzryI8JG/R4iaIYAAAggggAACCCBQJAINDzvITjiN8FEkh5NmIIAAAggggAACCCCQvwJ1DjjI6rc8j9Ou8vcQUTMEEEAAAQQQQAABBIpDgAnnxXEcaQUCCCCAAAIIIIAAAnkvQPjI+0NEBRFAAAEEEEAAAQQQKA6BBkccba3PZ85HcRxNWoEAAggggAACCCCAQB4LHNnoZOuiq10tX7XW+MGA1wCvAV4DvAZ4DfAa4DXAa4DXAK+BbL0GOO0qj5MhVUMAAQQQQAABBBBAoJgECB/FdDRpCwIIIIAAAggggAACeSxA+Mjjg0PVEEAAAQQQQAABBBAoJgHCRzEdTdqCAAIIIIAAAggggEAeCxA+8vjgUDUEEEAAAQQQQAABBIpJgPBRTEeTtiCAAAIIIIAAAgggkMcChI88PjhUDQEEEEAAAQQQQACBYhIgfBTT0aQtCCCAAAIIIIAAAgjksQDhI48PDlVDAAEEEEAAAQQQQKCYBAgfxXQ0aQsCCCCAAAIIIIAAAnksQPjI44ND1RBAAAEEEEAAAQQQKCYBwkcxHU3aggACCCCAAAIIIIBAHgsQPvL44FA1BBBAAAEEEEAAAQSKSYDwUUxHk7YggAACCCCAAAIIIJDHAoSPPD44VA0BBBBAAAEEEEAAgWISIHwU09GkLQgggAACCCCAAAII5LEA4SOPDw5VQwABBBBAAAEEEECgmAQIH8V0NGkLAggggAACCCCAAAJ5LED4yOODQ9UQQAABBBBAAAEEECgmAcJHMR1N2oIAAggggAACCCCAQB4LED7y+OBQNQQQQAABBBBAAAEEikmA8FFMR5O2IIAAAggggAACCCCQxwKEjzw+OFQNAQQQQAABBBBAAIFiEiB8FNPRpC0IIIAAAggggAACCOSxAOEjjw8OVUMAAQQKXWDqYrOTRpj95g6zWrcW1o/qrLqrDXEtheKRjbbHZUg5CCBQ2AKEj8I+ftQeAQQQyFsBdbQLMXQEQ5LaEEcAKUSPuNqety9SKoYAAjkXIHzERL65ZKvNmb/Yvv1+tn0z61/8YMBrgNdA0b0G9P6m9zm934VZNGoQ7MgX6n21JepSqB5xtD2qHdsjgEDxCBA+YjiW+iDWh/LK1eustLQ0hhIpAgEEEMg/Ab2/6X1O73dhAkgxjHq4sKS2RF0K1SOOtke1Y3sEECgeAcJHDMdSfwnUBzILAgggUBME9H6n973KFtdxL5bbytpb2fOF7FBZ23geAQQQCCtA+AgrlWY9/RWQEY80QDyFAAJFJaD3O73vVbYUcmc7Wd0ra29lzycrs1Aeq6xtPI8AAgiEFdjrD3+w//Nff7JaYTdgvYoCmuPBggACCNQkgTDve4XSsQ5bz6jHN+x+8nG9qG1newQQQMAJHHDUcda2bQfChwOpym2YD+GqlMs2CCCAQL4KhHnfy8dOdJQ6RT0WUfZd3dtGbTvbI4AAAk6A066cRITbMB/CEYpnUwQQQCDvBMK871V3hznu/Uc9CHHXJ5flRW072yOAAAJOgPDhJCLchvkQjlA8myKAAAJ5JxDmfS+XneNc7CvqQchFHbO1j6htZ3sEEEDACRA+nESE2zAfwhGKZ1MEEEAg7wTCvO9lqyNcXeVGPQjVVe849hu17WyPAAIIOAHCh5OIcBvmQzhC8WyKAAII5J1AmPe9ODq9+VRG1IOQT23JtC5R2872CCCAgBMgfDiJCLdhPoQjFM+mCCCAQN4JhHnfy7SDm+/rRz0I+d6+dPWL2na2RwABBJwA4cNJRLgN8yEcoXg2RQABBPJOIMz7XrrObCE+F/UgFGKbXZ2jtp3tEUAAASdwRMOT7bzzu3CpXQdSldswH8JVKZdtEEAAgXwVCPO+5zquxXIb9VgUskPUtrM9Aggg4AT4kkEnEeE2zIdwhOK9Tbdv327r1q+3HTt3Ri2qqLffsmWrrV+/wX799deibieNQ6C6BcK87xVyZztZ3aOaJyszm4/9rp/ZmaPN2o4yi7qfqG1newQQQMAJ5OS0q7nzF9rNdw2wqdNmuP0m3Or5ex981NauW5/weKHcCfMhPGfuPOvR83rTrX/ZunWrPTJkmPW69U5bsXKV/6mE36d+86116tq9wvYJK/nu/OPNd+yOuweYOuPVsWi/2n/r0zol/Jx34aX2+JNP2eIlS7NSLbX70p7X29q167y2qw56jAUBBOIVCPO+F6bD2+wps0XrzaYvNfvL4IqdZPf8iKkVnwtTfpzrRBUMW5fvlqfek55LV84HP5d5ys3Z+bepfb9Z7/fMGg5NX05wH6lrxDMIIIBAZgI5Cx+9br/XCyCLknQ6a2r42LRpk/XrP8j70e/plkxHPvIlfLiOv0YiNCKxYNFiGzp8pHW6oLtNmfpNuiZX6Tn/yIcLQK4OVSqQjRBAIKlA3OFDg5Xjf6jYIXYd6JoWPvyBIRgE0t33h49kIx9y3LDV7IJXKlqnKzfpi4AHEUAAgSoI5Cx83NLvfus3cLA9/MRTVlKyJaGqNTF8rF6z1hvt0KiHRj/iXvItfPjbpyAy7s13rNtlV9vCRYv9T8X6O+EjVk4KQyBBIO7wsWqz2aZtZvdOSuwUEz4SPdIFBD3nDx/J1iV8JLyMuYMAAtUgkLPwcfu9g+y7H//lhY9RL461nb65C8nCx9JlK+zBx4bZNb372g239LOx49+xcW9PsIceH+6dTqOOpX7/6NN/2otjx9stdw/01hsx6kVbt36Dt74Cj7Yd9swL3mPOt7S01L746hu77Z4H7Kpet1vvvv3tvQ8/Lq+T6qORmrff/8htkvY2zIew/7QrnXJ0xbW9bNTolyrM4dDpQlffeLNNnvKVPfTIEGt/ZmfvtCGdduVOJ1Jltm3fbq+8Ns66XHy5d1qTbse/9a73uJ534ePradPt6hv6lK8z4YOPyudDqEyd7jVz1vfW+/Z+XllnnX+xjXl5bEK9NM/kjbff855ve8Z5dl2vW83VR7fJlso6/ps2b/b27R+VWLJ0md12131em8/q3M1GvzTWa6P/9LGw7db+k9Xhp9k/W9cePb3woxBUlbYlay+PIVDTBMK87yXr/AYfc+Hiwzlm7/9stqbE7PJxuzvc7nn/yMclr5n9tNJsZ6mZRkwWbzC74e2yba4cb7Zui9kTU3aXoX2O+8Fs4zYzPe/qoJGBWcvNvllipt/d46luox7jVOUGH9eoR5iRD50+pbbLYEep2T/nm30yt+JpVwokzjHYBr9rsB7++8HtuI8AAghUVSCn4UOd+uUrVnqd/n9O+bq8zsHwsXL1Gus38GF7/uXXvVN1tmzdam9NmGg333V/hfChx2bPmeuVtWHjRhvw8BCv/Clff+t1sjXKohDz8utvlu9PQePO/g/Z/IWLvHVWrFptDz5WFmS00spVq23M2PE2fdYP5duk+yXMh7ALH+99MNEu7NHTXh47LqGD78pX+FDIUDhRR1mLgprr7Ot5Le++P9F6Xt/bmzuhTvSy5Su805ncSII69ed0ucQeevQJ77kdO3bYhx994gWIf82e45WhMjue3cX6D3rY3GlfS5ctt57X3WSfT/7SW8eNUlx29Y02fcYsUznzFyy0W++819u2quFDhT/6xAgbNPhxr30yV0gaPvI5b2K9RoP+8cbbnpU/fIRpt1s/GD7kqdGWSZ9+7h33qrbNg+EfBGq4QJj3PX/nNdXvrlOsDrLmfPxrVdmPm//hnned5ItfM1tdYvbZPLOmI8q2ef17s+WbzM59qSxEKFDoxwUKzW+Yu8as9NeyEOLqoiCisDPo08qDh7aJurj9VnYbJnz0ec9s83azaUvMOr9cZqEAp8c0h0Zuzk62bp+MfEQ9imyPAAJRBXIePlRhTTzXSMUv8+Z79Q+GD404DBw8NOH0LHXAhz87pkL4GPnCy+V/yVdhz4551QY9OsxKtuw+tUvluRGTNWvX2V0D/m4zv/sxwU73Bw99ukoTtMN8CCt8nHfRpdb+rPPtvoF/t23btiXs391x4UOjD/4lGD6eGD7SBj8+LKHt/vUVPhRyFCbcIhOFhjffmeA9pDKTTWJXKFD5WtasXWuXX/O38jDiylKA0ShJ1PDhgoLq2+f2frZ5c4nbhRdKHn5saMLE+TDtdmX6w4dGdxQ8NKKk0BGlbeUV5BcEarBAmPc91+FNdxvsIGvUQ4FAoyAKD+55Fz7UkZ63NnHCtAsXT+2alK5Rj7VbzC4aW9bpvnmC2crNZlMXJ247errZ0o1mrZ/d3TlPV9eohztd2f7nFD5SLc5BIxzLAnU/+O9mP64kfKSy43EEEMgPgWoJH+r8vfP+R97ohkY5guHj6edf8kJEkMgfItSxVKAInhql+9rev/i30750SpVOtwr+6NSwqlxxK8yHsBv5+OcXX3qnLT04eEhCR9vV14WPYKc+GD5UnsKFwsT7Eyd5V8pynWqVpc6864S7sv2dcT0WLNOtp/ChHy3aj0Y95s1f6J72blPV060U3Jd73H+rfbgA5Q88/nWC7cik3a4OCjVdu19pU77aPdqmfVS1bf768TsCNVUgzPuev0Od6ncXLvx/nde8D83/ePabiuEjXcfclXH2mLLREYUL7VcddZ1adc2bZppbojCijvrsVWVzJFLVLfh41GMdLC/VfbVRI0CaFB78OXZIWZu0zoxlFUOTDBj5iHqk2B4BBLIpUC3hQw3SSIbmfmg+xs+/zEu41G62w8cd9z1oCxbGN9E5zIewOrruUrsKOJrboJ9g2EnVqU8WFHRq0rTpM23kqNFeELml7z3eJWblG+y06zHXGddzWpKVqcdzET6Ccz7Chg/VL2y7XXsHPvSoF6CCc2wIH97LgH8QqJJAmPe9VJ1r/+PJwoeeV/DQ3I2+H5Z1pt1f/FN1uv1l6ncFDo0C6HsuNC9CoyFuZEAd9JveLRthURAJbpvqfpWgfBulKjf4uNqon+Dj/vupHAgfPnB+RQCBvBSotvAhDTe3Y8hTo+yeQY+Ud8THvbV7YrlTS3XaVaYjHzrtqm//h+yLqdNc0ZFvw3wI+8OHdqgOtK50pcnbmq/hlkzCh9tGt5rv8reb+3qjILofV/hYsWKlF5oUVPxLlNOu3FwL/9WuNAcmOFKjYx487cpfB/2ert0ufMhCxpojo9O2NGldS1XbFqwD9xGoiQJh3vf8neVUv6cKH5rzoe/+WLGpbBTDhQ91roOnGyUre8DHZadevTqrLHy0f66sM69Ts3Sq1aRfyuaBuJGEZGUEH4t6nIPlpbofJnzIIXj6mZtAz8hH1CPF9gggkE2Bag0fapjmfehqU/5TnvRdILpS1etvvuvN+1An9OPPv7Abb7u7fO6GOpZVOe3KnfKl0Y9ZP/xkuvKVytIEeO1Pz2dzwrlCiFt0pSX9Nb7stKYF3sNhwoc8dKUrfU+Gvv9Di06LUjkuJMQVPuQx8rkx3rwP1V331Wnve/cA05Wv3P5cm9ytv+PvHtN8jlTf86GJ8gojL77yunc6mmw0QV6T5l0oybTdwTq4yxu7U96q2jbXHm4RqMkC2Q4f6phrLsbCXd8968KHmxOiidanv2CmL83Tla50CpImYbsOveaBqHO+dUfZKIh7XJOzNf9Dj7vTstxzld1GPd6Vle+eDxM+rhhXFq4mzimbdC+HMdPNtu9Mf9pVv4lmJdvL1j11pFnY8BW17WyPAAIIOIFqDx+qiCagaxK4/xSkRUuWJVxq96XX3vDCgZs4XtXwof0FL7V73c132WPDnjHtU4ubFxIcVfGeTPJPmA/h4MiHK0Yd4Lff+8DreOtqUmvWrPWudhXs1Ou+u9Sutpn1/Q+m06xO69TVu4zuJVdc63XW9ZyWuMKHytJIgS7jq8v5ukvtfjZ5StJ6una5jn/wG867XHKFd1UuBZjgsmjxkoRL7T7z/BgvjLjwkWm7XR1k4RZ3ypu+3FFX+KpK21xZ3CJQkwXCvO+5znS621QjH24bhQ1NHnfhQ4/7L7WrY6BL6L71U+IkdK335o9m23aaqcPtytPt14srXjDl/aAAACAASURBVHbX/3yq36Me71TlBh9X+Ei16Dm3vkKXu9SuLjv81aKyq4ClG/nQ6Ii+zFEu+rgIXpLYlR28TVUfHkcAAQQyFchJ+Mi0UoW2fpgP4UJrE/VFAAEE0gmEed8LdmAL/X46jzDPFXL7w7SPdRBAAIEwAoSPMEqVrBPmQ7iSIngaAQQQKCiBMO97hdzZTlb3qAcoWZmF8ljUtrM9Aggg4AQIH04iwm2YD+EIxbMpAgggkHcCYd73CqVjHbaeUQ9C2P3k43pR2872CCCAgBMgfDiJCLdhPoQjFM+mCCCAQN4JhHnfy8dOdJQ6RT0IUfZd3dtGbTvbI4AAAk6A8OEkItyG+RCOUDybIoAAAnknEOZ9r7o7zHHvP+pBiLs+uSwvatvZHgEEEHAChA8nEeE2zIdwhOLZFAEEEMg7gTDve7nsHOdiX1EPQi7qmK19RG072yOAAAJOgPDhJCLchvkQjlA8myKAAAJ5JxDmfS9bHeHqKjfqQaiuesex36htZ3sEEEDACRA+nESE2zAfwhGKZ1MEEEAg7wTCvO/F0enNpzKiHoR8akumdYnadrZHAAEEnADhw0lEuA3zIRyheDZFAAEE8k4gzPteph3cfF8/6kHI9/alq1/UtrM9Aggg4AQIH04iwu2338/2vjU9QhFsigACCBSMQGlpqel9r7IlXWe2EJ+rrL2VPV+IbXZ1rqxtPI8AAgiEFSB8hJVKs96c+Ytt5ep1adbgKQQQQKB4BPR+p/e9yhbXcS2W28raW9nzhexQWdt4HgEEEAgrQPgIK5Vmvc0lW72/AuoDWX8RZEEAAQSKUUDvb3qf06iH3vcqW35zh1khd7j9dVdboi6F6hFH26PasT0CCBSPAOEjpmOpD2L9JVAfyjoXmh8MeA3wGii214De3/Q+FyZ46K31pBHFEz7UlqhLoXrE0faodmyPAALFI0D4KJ5jSUsQQACBvBKYutisUP/aHxz1UFuiLoXooeMXR9uj2rE9AggUjwDho3iOJS1BAAEE8k5AHVf95bwQQ4jqrLrH2fkuFI9stD3vXpxUCAEEqkWA8FEt7OwUAQQQQAABBBBAAIGaJ0D4qHnHnBYjgAACCCCAAAIIIFAtAoSPamFnpwgggAACCCCAAAII1DyBJm3aWrdu3axWzWs6LUYAAQQQQAABBBBAAIFcCtRt1JLwkUtw9oUAAggggAACCCCAQE0VOOCQBnYOIx819fDTbgQQQAABBBBAAAEEcidwzCEH2fEdLuS0q9yRsycEEEAAAQQQQAABBGqmQKsT61nd49oQPmrm4afVCCCAAAIIIIAAAgjkTqBtm6Z2Ur1jCB+5I2dPCCCAAAIIIIAAAgjUTAFdardL60aEj5p5+Gk1AggggAACCCCAAAK5E/C+5+PCjoSP3JGzJwQQQAABBBBAAAEEaqYAXzJYM487rUYAAQQQQAABBBBAIOcChI+ck7NDBBBAAAEEEEAAAQRqpgDho2Yed1qNAAIIIIAAAggggEDOBQgfOSdnhwgggAACCCCAAAII1EwBwkfNPO60GgEEEEAAAQQQQACBnAsQPnJOzg4RQAABBBBAAAEEEKiZAoSPLB33zSVbbc78xfbt97Ptm1n/4gcDXgO8BngNFNhrQO/feh/X+zkLAggggEA8AoSPeBwTStEHlT60Vq5eZ6WlpQnPcQcBBBBAoDAE9P6t93G9nxNACuOYUUsEEMh/AcJHFo6R/lKmDywWBBBAAIHCF9D7ud7XWRBAAAEEogsQPqIbVihBfyVjxKMCCw8ggAACBSmg93O9r7MggAACCEQXIHxEN6xQguZ4sCCAAAIIFI8A7+vFcyxpCQIIVK8A4SML/nxIZQGVIhFAAIFqFOB9vRrx2TUCCBSVAOEjC4eTD6ksoFIkAgggUI0CvK9XIz67RgCBohIgfGThcPIhlQVUikQAAQSqUYD39WrEZ9cIIFBUAoSPLBxOPqSygEqRCCCAQDUK8L5ejfjsGgEEikqA8JGFw8mHVBZQKRIBBBCoRgHe16sRn10jgEBRCRA+snA4+ZDKAipFIoAAAtUowPt6NeKzawQQKCoBwkcWDicfUllApUgEEECgGgV4X69GfHaNAAJFJUD4yMLh5EMqC6gUiQACCFSjAO/r1YjPrhFAoKgECB9ZOJx8SGUBNcMif/31V1u/foNt2bI1wy1ZHQEEEKgowPt6RRMeQQABBKoikBfhY+78hdbr9nvtql63J/zccEs/GzXmVVu9Zm1GbVu7br3dfu8gmzbju4y2i2vlOD+k1ImePOUru67Xrdb+zM7W+rRO1u2yq+35F1+xkpKShCpP/eZb73mt4//pcvHlSddP2NjMVq1eY0OHj7TzLrzU2/60Tl2tX/9B9v2PP5nqUUjL2rXr7NKe19s/3nynkKpNXRFAIE8F4nxfz9MmUi0EEEAgJwJ5Ez4UFhRC3FJaWmpLl62wISNG2cDBQ62kZIt7qtLbYgkfO3butGFPjzKFh08+n2ybN5fY9u3bbc7ceXbTrXd5gWTlqtXlHgof6nCr4+0WlfHL3Pl2Y5877OHHhtrOnTvdUwm3KufqG/rYw48/aUuXLbcdO3Z4IwcTP/7U2/+kTz9PWD/f7zDyke9HiPohUFgChI/COl7UFgEE8lcgb8OHI1u8dJn17f+Q/TJvgXuo0ttiCR9Tpn7jjXL8PGduhTYriNx578CEQJEsfLgNZ8763i6/5m8pR5HefGeC9br1Ttu0ebPbpPxW+wqOspQ/yS8IIIBAgQk8P+YV27RpU4Va6zGNKidbCB/JVHgMAQQQyFygIMLHnQP+njAqor/Sa0Tkupvvsmt697UHHhlq8xYsKm99svChU7eGPTO6fJsHHxvmjay4jbZt327j3p5gvfv290790u27H0wyPa7l6edf8k7lUtmVLXF8SGmE476Bf7ennnk+5SlP02fMsosvv8YWL1nqVamy8NHzupsSRkX87dDpSbfeea+VbEk/wpRsH5pXccfdA8pPcdLIy9U33mxfT5tuw55+1rr26GmdLuhu/Qc9bCtWrvLv1hYtXmK33XWfd0qZTvN66NEnzBm7cid8OMlGPjfG9PyjT4wwtVunni1YtDihLIWkPrf3s3ffn+i1U6NAqq9btO8BgwZ75egUtpvvuNvmzpvvnvZudV+P63n9qG6qoxbXLp0G99AjQ7znOa0rgY87COS9gIKHTkvteX3vhACi4KHH9JzWCS5xvK8Hy+Q+AgggUBMF8jp8bNy02UaMetEGD326fOLwytVrrN/Ah+35l1/3TgvS6VhvTZhot9w90H7Z1ZEMho81a9fZ3Q8MttfffNe2bN3qnXr08edf2ICHh9j6DRu94/7hx5/ZXQP+bkuWLfc6+8tXrPTmmyza1bH/5J9TbOz4t21zYJ5FshdNHB9S69av90YqPv38i2S78B5THRU+pk2f6d1PFgz0xIoVK71OtE7hSnXalTrdXS65wuucL1i4KGXgSbYPFxJcR9zNt1AA+Wn2z17ddBrUP95426792y3loy/ap0LEhx99Yjo9bOvWrfbiK697dVDoc+Ve2KOnN+9FZaj+LmS8PHacV7b7R6Hk+ptuM9m5Orjw4U4rGz7yOe95laH6aP9uZEnbqX6vjXvLq48CoE53U520b1fmFdf2Km9XKk9XJ24RQCC/BLyQcd1NCQHEHzz0RxrdDy5xvK8Hy+Q+AgggUBMF8iZ8JJtwrgnoz704NuGv8W+//1GFOSDqAA5/doyNfOHlsk5iYMK5tnnkyZHloxg60OrcPjrsGZs2Y5Z33J8d86oXdNTJjLrE8SHlOrqu85ysTsF1tK5/orn7vePZXbwOtRvFSVaWHnMTzs/q3M0bHeh9ez/TnA//KVeZhI8xL49N2JVO6dKpXe9PnOQdp8effKrCyI4CgEYeNK/FhY9Bgx+vEJo+n/yl3dL3Hi+IaCd6DWhOiwskQRsFI42KKHS4xW2jeui4z5u/0JszM+eXiqe5aRtXZrBdrjxuEUCgMASCAcSNeKQKHmpVHO/rhaFDLRFAAIHsCuRN+Eg24fyLr76xewc9ahrtcItOf1JQCC4KGA89PtzrsAZHPrRN8Epa7r620zJ3/gK7+a77bdCjw2zSp5NNfymvahCJ40MqrpEPjSjoL/l33TcwoeMd9PPfV7t1mdrJU6Z6E9s18qAwoCWT8KE5K8FFp03pxwULF5CCt9qPW8eNqPjLko9GOTTaoUWnYF11Q+/yU7FcUFA5WrTPJ4aP9H73/6OydcqY9uWf4D9y1GjTPBmNfrglWKZ7nFsEECg8AX8A0ftPuuCh1sXxvl54StQYAQQQiF8gb8OHmqoOoQLFuLcmlLe8quEjWWApL3TXLzola/qsH2zM2PG7gsiT5fMPguumux/Hh5T+Kq+/+Mcx52PN2rXeKVwaLch0UYf8/oce8Trv2jaT8BE8ZUyhZvDjwxLChya6p1rShQ9to1EOdwUv/+96LhgUwoQPbac6Llm6zN77YKIXSjRXRSM1ycr0HuQfBBAoWAEXQCoLHmpgHO/rBQtFxRFAAIEYBfI6fKidmouhuRnudJlkp1CFOe0q08v1bty0yfo/9Lg3CpKpd1wfUmGudqW/5qv9WpIFAz2uDrVCTLLTl1zbFDK0XnBxgcGNGmg0QBO5Nd/ELQo3l119Y8KEc60TDE4ardDlfP2nXbnw4Mry31YWPtxox4xZ3yWMgqiMYPjQCMc9Ax5MOPUueNqVf9/ud11iWPNANmzcWKFMtw63CCBQuAIKIPqpbInrfb2y/fA8AgggUOwCeR8+dKndW+8eaDO/+9E7Fm7CuZs8rtNidJpUugnnbhtNUtckdvcdIvoCQ00oVydUV7qaOm1G+Wk2CxYutjvue7B8TkiuJ5yrsf7TgDT3Qh1gtTeT7/lwL2CFhmRXiHLPv/DSq953gSjAaD8KHerAv/LaOOvUtbupg69Fk9d79LzeXhv3plcXBYpHhgyz9medXyF8dL/yuvLJ5Bs3bvJGPRQ+3JdGaqK36qSJ35psrvbqO0k0SqFyKwsfLjzodKt7Bz6UECyC4cNNONfkce1LjgpB/gnnmgA/avRL3hW51H7NkRnzymvlp2UFy3R23CKAQPELED6K/xjTQgQQyI1A3ocPdTCHjny+fDK5WKJealfzPW675wH7YNJnXgdTYeT7n2bboEef9C7F657XFbH0nJZcX2rXHX51gjP5hvPglwy6ctxk72TzJ7SO9jPlq69Nk8x1SVudA61bXe7XXWrWlTV95nemKz5pHc0H+XDSJ97VtFzZrpP+2eQp5ZfIdZet1SlN/sV/qd22Z5znzdtQe1WfysKHytGcD9UzeEqZq4Ob86F1K7vUrgKSrvGvQOLar0vzussDJyvT3xZ+RwCB4hUgfBTvsaVlCCCQW4G8CB+5bXL291bTP6TopGf/NcYeEEAgtwI1/X09t9rsDQEEilmgSZu21q1bN6tVzI3Mddtq+ocU4SPXrzj2hwAC2Rao6e/r2falfAQQqDkCdRu1JHzEfbhr+ocU4SPuVxTlIYBAdQvU9Pf16vZn/wggUDwCBxzSwM5h5CPeA8qHVLyelIYAAghUtwDv69V9BNg/AggUi8Axhxxkx3e4kNOu4jygfEjFqUlZCCCAQPUL8L5e/ceAGiCAQHEItDqxntU9rg3hI87DyYdUnJqUhQACCFS/AO/r1X8MqAECCBSHQNs2Te2kescQPuI8nHxIxalJWQgggED1C/C+Xv3HgBoggEBxCOhSu11aNyJ8xHk4+ZCKU5OyEEAAgeoX4H29+o8BNUAAgeIQ8L7n48KOhI84DycfUnFqUhYCCCBQ/QK8r1f/MaAGCCBQHAJ8yWAWjuO3388u/2b0LBRPkQgggAACORQoLS01va+zIIAAAghEFyB8RDesUMKc+Ytt5ep1FR7nAQQQQACBwhPQ+7ne11kQQAABBKILED6iG1YoYXPJVu+vZPrA0l/MWBBAAAEECk9A7996H9eoh97XWRBAAAEEogsQPqIbJi1BH1T6S5k+tHSuMD8Y8BrgNcBroLBeA3r/1vs4wSPpxxwPIoAAAlUSIHxUiY2NEEAAAQQQQAABBBBAIFMBwkemYqyPAAIIIIAAAggggAACVRIgfFSJjY0QQAABBBBAAAEEEEAgUwHCR6ZirI8AAggggAACCCCAAAJVEiB8VImNjRBAAAEEEEAAAQQQQCBTAcJHpmKsjwACCCCAAAIIIIAAAlUSIHxUiY2NEEAAAQQQQAABBBBAIFMBwkemYqyPAAIIIIAAAggggAACVRIgfFSJjY0QQAABBBBAAAEEEEAgU4HYwsfUxWYnjTD7zR1mtW6tOT9qr9qt9rMggAACCCCAAAIIIIBAaoFYwoc63jUtdAQDltpPAEn9QuMZBBBAAAEEEEAAAQRiCR/6y3+wM14T78sh2bJg0WIb/MRTdm2fvnZVr9v58RnIRDYyYkEAAQQQQAABBBAoboFYwkdNH/VwQUsOwUWdakJH5YFLRgSQ4KuH+wgggAACCCCAQHEJxBI+XOeb24ovDv1Vn9GOysOHjGTFggACCCCAAAIIIFC8AoSPmCfHB18qjHqECx4KH7JiQQABBBBAAAEEECheAcJHlsMHox7hw4esWBBAAAEEEEAAAQSKV4DwQfjIq9PCive/Gi1DAAEEEEAAAQQQIHwQPggfvA8ggAACCCCAAAII5ESA8EH4IHzk5L8aO0EAAQQQQAABBBAgfBA+CB+8DyCAAAIIIIAAAgjkRIDwQfggfOTkvxo7QQABBBBAAAEEECB8ED4IH7wPIIAAAggggAACCOREgPBB+CB85OS/GjtBAAEEEEAAAQQQIHwQPggfvA8ggAACCCCAAAII5ESA8EH4IHzk5L8aO0EAAQQQQAABBBDIefi44BWzLxeZbdlRhv/rr2ZLN5oN/8qs9v1mtWIOA6nKO/0Fs6veiH9/wZdUlG84v+2eB+zzKVNt/YaN9qugzGz7jh02b8EiGzXm1bwKDa6dP86eY2vXrbdHnhxZpfoF/biPAAIIIIAAAgggUDwCOQ0fd39ktnm72ZzVZnd8YNb6WTOFkdHTzdZuMZs4J/4wkCx8NHvKbNF6sw9+jn9/wZeG65RnenvPoEds0ZKlXtj4dub3XtgY8tQoG//2+7Z46TIrKdlio1/9R5U6+JnWJZP1CR/BVwD3EUAAAQQQQAABBJxAzsKH6/DPWm72l8EVO/0Nh5qdOrLi48nCQ9THXF3yOXx8MXWabd++3d6b+HHSgPHUcy/ajbfdk/S5TMJC3OsSPtx/LW4RQAABBBBAAAEEggJN2rS1bt26Wa3gE5ncDxMGHvvCrGS7Wb+JlQeMEVPNlm8yG/m12ZoSs207y7bTaVljpptt3FZWO5269d7sxDDTdITZV4vMdpSa6UwljXCMmma2YWtZGSo7uGgdBZIw5VfW1mDZVencP/DIUFu9Zq0tWbY8VMAYPPRpm79wkZWWlnqnZ+m0pylff2tbt261d97/yAsoCgUrVq22yV9+bZtLSmzHjh3eqMrM735M2McLr7xuy1esKi9L606ZOq18neDz69ZvsNfeeKc8BBE+gq8A7iOAAAIIIIAAAgg4gbqNWuYmfCgkrC4xO3tMuPBR+qvZL2vMOj5v9rt+ZcFAZazbYtb3w7LHrhxvtniD2fgfysrUiMr0pWYrN5eto/sKPQow/uCTauSjsvIrCx56PrhUJXw8M/oVK9myxWZ890N5pz5VOWWnZy2zjZs221sTJpruf/z5F17A0MiJP3wonOhUrkGPDvPK/WDSZ7Zt2zab8NEn3v3nX37d227Z8pWmOigEfTr5S1u4uGwb7/nNJTZn7nxT4NG+ps/63jZs3GQjX3jZK4PwEXwFcB8BBBBAAAEEEEDACRxwSAM7JxcjHzrFyY0wVNaJ1+iERi4Gfbo7qFw0tmxeyBNTdj+mcnR/wbqykQuNqmzaZjbg48R1NKdk647doy7JwkeY8iurd1zhQ5PJNWrxzylfVxo+FC78AcKFlKnTZnijG/7wsWXLVnvupdfKy9SkcI2S/PDT7PLgsHHTJhsxakz5Oq483SpYaETGhRc9pt/1mEZU3DpMOHf/vbhFAAEEEEAAAQQQ8Ascc8hBdnyHC7N/2lWmIx86TUqT0V2HX8FCp18lW9y6Ci0aGen88u7ttL22dadd6X6y8BGmfFeXdLfB+vk772F/z2TkQwFFoyTaxl++QkfwtKtgKHDhQ6FC2y5dtsL78Zfj/13Pp1pcGYx8pBLicQQQQAABBBBAAIFWJ9azuse1yX740CiGrnSlTn66zrueU4hwgcKtq+3Wby27SpZ7LHgbNXxUVn5wf8nuB19S/s572N/7DXzYm58RZs5HrsOHrrSVrh2Ej+ArgPsIIIAAAggggAACTqBtm6Z2Ur1jsh8+3GhDqqtdHfCgmX7UoU8WPnRalEY1dApVsk6/HtPpVjrtKhhwwp52VVn5qfbrf9zButt0HfV0z1V2tSvNx9D2mq+h067c6VWuzGSnXVU28qHgsGHjRtMlfV05/tvKnte6hA935LlFAAEEEEAAAQQQCAroUrtdWjfKfvhQB13f86GJ33PXlI1g6LQq/TzzTdmk8A93fc9HsvChSefv/1w2+qFJ5LoylQLNSzPMPptXNgFdl+vVJHVNQr/mzbJ1NDld3yHin/OhshSCFq43u/i1skv87j2g8vL9ISPV70Fgf+c9k9/d93zoqlSa1K3J3poLMnb8O7Zw0RJvYri+50NzLlatXmO66tQr494yfTGhJp7re0C0rQslyUJB8LSrF8eO98rVBPPhz472JpRrUvrc+Qu9/QSf1750pSuNhox7e4IXWJLtJ5N2B/24jwACCCCAAAIIIFA8At73fFzYMTfhQx12hY3gN5zrKljPTSsLC1onWfjQ48FL4e4sLQsyvd/bPRrS8pnES+0qiLw4I3HOh8pS6NBzuhzvvLVmjYeHK1/bpvsJvjQy6XgH1032DecKFOrs65K3bv3Hhz+bcKldBZGvv52Z8ZwPlffSa2/YytVrQl1qV23dum2bzfrhp/JJ6ISP4CuA+wgggAACCCCAAAJOIGdfMpiuw15MzzlYd+sCAre3l4eldBbOjVsEEEAAAQQQQACB4hMgfFQykpFpMAq+RNJ1tHmuYiAJ+nEfAQQQQAABBBBAoHgECB+Ej1AjErkKSsXzX4uWIIAAAggggAACCAQFCB+ED8JH8H8F9xFAAAEEEEAAAQSyIkD4IHwQPrLyX4tCEUAAAQQQQAABBIIChA/CB+Ej+L+C+wgggAACCCCAAAJZESB8ED4IH1n5r0WhCCCAAAIIIIAAAkEBwgfhg/AR/F/BfQQQQAABBBBAAIGsCBA+CB+Ej6z816JQBBBAAAEEEEAAgaAA4SPL4ePaPn3zqnOfq0vmVmU/smJBAAEEEEAAAQQQKF4BwkeWw8fgJ54ifPSq+GWCycKJrFgQQAABBBBAAAEEilcglvDxmzvMMv0m8GJcXw7BZcGixcboR+XhQ0ayYkEAAQQQQAABBBAoXoFYwsdJIwgfClNySLaoU62/6hNCKoYQmciG4JHslcNjCCCAAAIIIIBAcQnEEj6mLjar6aMfar8cWBBAAAEEEEAAAQQQQCC5QCzhQ0Wr462//Ne0EKL2qt0Ej+QvMB5FAAEEEEAAAQQQQMAJxBY+XIHcIoAAAggggAACCCCAAALJBAgfyVR4DAEEEEAAAQQQQAABBGIXIHzETkqBCCCAAAIIIIAAAgggkEyA8JFMhccQQAABBBBAAAEEEEAgdgHCR+ykFIgAAggggAACCCCAAALJBAgfyVR4DAEEEEAAAQQQQAABBGIXIHzETkqBCCCAAAIIIIAAAgggkEyA8JFMhccQQAABBBBAAAEEEEAgdgHCR+ykFIgAAggggAACCCCAAALJBAgfyVR4DAEEEEAAAQQQQAABBGIXaNeunV188cVWK/aSKRABBBBAAAEEEEAAAQQQ8AkQPnwY/IoAAggggAACCCCAAALZEyB8ZM+WkhFAAAEEEEAAAQQQQGCXwI4dO6x9+/Z2ySWXcNoVrwoEEEAAAQQQQAABBBDInsDMmTPt9NNPJ3xkj5iSEUAAAQQQQAABBBBAQAK33HKLnXfeeda9e3er1adPH5s+fbppOIQFAQQQQAABBBBAAAEEEIgqsGPHdvts0kd2aqt29ts/7GN/Oa6VderW1Wqdc8453jlYLVu2tFNPPdVOOeUUa9asmZ188sl20kkneT9NmjSxxo0b24knnuj9nHDCCZbq5/jjjzd+CsPg2GOPtYYNG2Z0vLS+tuMYZ+kYN2xgDY5rlOjbqKE1aJDZccrV8TmqXv3EuvL/Hw9eAzl9Dfzbv/2b1apVK+MfbRfH+wTvAVn6LOD/USyvzzhe45mWkf99qwZ26F572L/XqVfBuOFxDaz+4QfaH3+3h+25/9HWyN/fb3S0HfCHPezf99jHDqx7lB11VD076vBDrfZ//97+1x5/tsManeRlB2UIZYnG9erYHr/b0/Y9sL41aXaq6Ts+mh93mO172AlW68ILL7QLLrjAOnfubOeee64pjJx11ll25plneudmnXbaadaxY0fr0KGDF1I0WUSz1fWjgvgpXIPmzZtbq1atrE2bNqGOo9bT+tqO4x7iuLdpZSc3PNrqHna4HZrkp+7h9e345mX2rZs3tnp1D7I6B+jnUKt3Uitr2+oUa3hU3V2PHWSHHHuKtc6z/3MnNmnKayHPjgn/N0P83yyiY1aV4OG2ieO1wntAzXq9xfGaKfYy8r9v1cKO2e8P9r9/l+rnT1b7yCbWso3/td3Gjj/0/9r//q+DrUGLduV5QNmgY7uT7PA/7mn/dVAT63DmmV6GOKfd8bb/7//b/ly/rXW+4AJT1ujWrZt3ytX5px5ltS666CLr2rWrdenSJWkAOeOMMxJCiAsi/jCiQMJP4Rm0aNHCCx4KYtj/EwAAA1ZJREFUkmGOn9ZTANF2Ydav8eu0a21N6te1OgcenOLncPvrKW2sfbvW1vjoQ711DjysvtWvf6w1at7GWpxQzw7QtgcfafXq/9WOadzC2ubZ/7UmTU+O9lpofYo1OOwA23uffeyPe9W2vQ860o5r1jpQZmtr1uBw2692bfvjXvvYXrUPsIPrN7GW7VL9n2tu9ev82Y5quvv51s0aWt39/2x77bWP/XGfP9sBRzSyZq13P5/wWlWd6u5vex3ZNFCPwPptGlvdvQ6x41rterxdC2vS4Ej7f38uq6f2s99hDSvup10ra3zUIbav1+Z9bK86de3oJq0S9xW2rPbtrWWTo337rMwm0IY8ez0lHAfqlviaSOHhgkRVbuPwjvwekKJdcdSNMvj/Xh2vgfzvW7W0Y+vsab+te6K1btU64afFKU2t0bGH23577mm/r9PAmrvP2bYn2qF77Gl/PLKZNxihLKAfDVBoEnmrY/ez3/7nwda4w1neIEaHRgfYf/z+cGt2ThcvYyhr6CpXPXr0sMt7nG619E2DyQJIp06d7Oyzzy4fBVEI8QcR7dD/4yrCbdkBKQQHjWLoP2YmddX62i6TbWruuu2s6V8Ps/0POsyOOSWNc7sW1uDwQ2z/g+vZia067LJtb82O1bZ/sXpN2+Std9Nmzatetw7Nrd5++1rtIxpbi3btrWP7Ntas4eFWe99DrGGr3f+PmtWvY3/a7wg7oWWZYfuWTe3IA2vb3kecZO12vQEmvMZaNLD/+fMx1sw91/wYq713HTvsxJbWrn1Ha9+muTX8Sx3b++DjrZVbZ9dtq5OOtv33rW1777uv/emoZmnb1r7xEfanQxvvqkMra3hwbfufwxpa05btrH2HjtaxfUs74Yg69qeD/PtpYyccWtv2PriBNWvV3jp2aG8tvH3WsSNPdq+RsGV1tDYn/MX23vcQ+2vzVt4+nU3tes2sfaBtCUY8l/bYFpKVQsehhx6aUXu0vraLo52R3gN4HcZyDOI4jpSx+zMnqkX+963a2HH772m/PTzNZ9ypDex/9tjTDmrYrqyv36qh1dljT9v/uLblgcPlAp0pdVbzo+0//vO/rX6LTt5ZVK3q/9H+4/fHWruuXb2MoayhieaXXXaZXXHFxfb/AUcL1ZFB3VOPAAAAAElFTkSuQmCC;" vertex="1" parent="1">
          <mxGeometry x="26" y="50" width="799" height="260" as="geometry" />
        </mxCell>
        <mxCell id="xvntZWfGnCIacBmoKaAR-4" value="Krishna Dasika" style="strokeWidth=1;shadow=0;dashed=0;align=center;html=1;shape=mxgraph.mockup.text.textBox;fontColor=#666666;align=left;fontSize=17;spacingLeft=4;spacingTop=-3;strokeColor=#666666;mainText=" vertex="1" parent="1">
          <mxGeometry x="160" y="370" width="150" height="30" as="geometry" />
        </mxCell>
        <mxCell id="xvntZWfGnCIacBmoKaAR-5" value="Name:" style="text;html=1;strokeColor=none;fillColor=none;align=center;verticalAlign=middle;whiteSpace=wrap;rounded=0;" vertex="1" parent="1">
          <mxGeometry x="110" y="370" width="40" height="20" as="geometry" />
        </mxCell>
        <mxCell id="xvntZWfGnCIacBmoKaAR-6" value="Role:" style="text;html=1;strokeColor=none;fillColor=none;align=center;verticalAlign=middle;whiteSpace=wrap;rounded=0;" vertex="1" parent="1">
          <mxGeometry x="110" y="420" width="40" height="20" as="geometry" />
        </mxCell>
        <mxCell id="xvntZWfGnCIacBmoKaAR-8" value="Admin" style="html=1;shadow=0;dashed=0;shape=mxgraph.bootstrap.rrect;rSize=5;strokeColor=none;strokeWidth=1;fillColor=#006AC9;fontColor=#ffffff;whiteSpace=wrap;align=left;verticalAlign=middle;fontStyle=0;fontSize=14;spacingLeft=10;" vertex="1" parent="1">
          <mxGeometry x="160" y="415" width="80" height="40" as="geometry" />
        </mxCell>
        <mxCell id="xvntZWfGnCIacBmoKaAR-9" value="" style="shape=triangle;direction=south;fillColor=#ffffff;strokeColor=none;perimeter=none;" vertex="1" parent="xvntZWfGnCIacBmoKaAR-8">
          <mxGeometry x="1" y="0.5" width="10" height="5" relative="1" as="geometry">
            <mxPoint x="-17" y="-2.5" as="offset" />
          </mxGeometry>
        </mxCell>
        <mxCell id="xvntZWfGnCIacBmoKaAR-10" value="" style="html=1;shadow=0;dashed=0;shape=mxgraph.bootstrap.rrect;rSize=5;fillColor=#ffffff;strokeColor=#999999;" vertex="1" parent="1">
          <mxGeometry x="160" y="458" width="170" height="150" as="geometry" />
        </mxCell>
        <mxCell id="xvntZWfGnCIacBmoKaAR-11" value="Admin" style="fillColor=none;strokeColor=none;align=left;spacing=20;fontSize=14;" vertex="1" parent="xvntZWfGnCIacBmoKaAR-10">
          <mxGeometry width="170" height="30" relative="1" as="geometry">
            <mxPoint y="10" as="offset" />
          </mxGeometry>
        </mxCell>
        <mxCell id="xvntZWfGnCIacBmoKaAR-12" value="Beta Users" style="fillColor=none;strokeColor=none;align=left;spacing=20;fontSize=14;" vertex="1" parent="xvntZWfGnCIacBmoKaAR-10">
          <mxGeometry width="170" height="30" relative="1" as="geometry">
            <mxPoint y="40" as="offset" />
          </mxGeometry>
        </mxCell>
        <mxCell id="xvntZWfGnCIacBmoKaAR-13" value="General Audience" style="fillColor=none;strokeColor=none;align=left;spacing=20;fontSize=14;" vertex="1" parent="xvntZWfGnCIacBmoKaAR-10">
          <mxGeometry width="170" height="30" relative="1" as="geometry">
            <mxPoint y="70" as="offset" />
          </mxGeometry>
        </mxCell>
        <mxCell id="xvntZWfGnCIacBmoKaAR-14" value="" style="shape=line;strokeColor=#999999;perimeter=none;resizeWidth=1;" vertex="1" parent="xvntZWfGnCIacBmoKaAR-10">
          <mxGeometry width="170" height="10" relative="1" as="geometry">
            <mxPoint y="100" as="offset" />
          </mxGeometry>
        </mxCell>
        <mxCell id="xvntZWfGnCIacBmoKaAR-15" value="Separated link" style="fillColor=none;strokeColor=none;align=left;spacing=20;fontSize=14;" vertex="1" parent="xvntZWfGnCIacBmoKaAR-10">
          <mxGeometry width="170" height="30" relative="1" as="geometry">
            <mxPoint y="110" as="offset" />
          </mxGeometry>
        </mxCell>
        <mxCell id="xvntZWfGnCIacBmoKaAR-16" value="Add User" style="rounded=1;fillColor=#0057D8;align=center;strokeColor=none;html=1;fontColor=#ffffff;fontSize=12" vertex="1" parent="1">
          <mxGeometry x="330" y="370" width="86" height="33" as="geometry" />
        </mxCell>
        <mxCell id="xvntZWfGnCIacBmoKaAR-18" value="Users to Be Added" style="swimlane;fontStyle=0;childLayout=stackLayout;horizontal=1;startSize=26;horizontalStack=0;resizeParent=1;resizeParentMax=0;resizeLast=0;collapsible=1;marginBottom=0;" vertex="1" parent="1">
          <mxGeometry x="160" y="640" width="140" height="104" as="geometry" />
        </mxCell>
        <mxCell id="xvntZWfGnCIacBmoKaAR-19" value="Krishna Dasika" style="text;strokeColor=none;align=left;verticalAlign=top;spacingLeft=4;spacingRight=4;overflow=hidden;rotatable=0;points=[[0,0.5],[1,0.5]];portConstraint=eastwest;fillColor=#ffffff;" vertex="1" parent="xvntZWfGnCIacBmoKaAR-18">
          <mxGeometry y="26" width="140" height="26" as="geometry" />
        </mxCell>
        <mxCell id="xvntZWfGnCIacBmoKaAR-20" value="Tim Boyle" style="text;strokeColor=none;align=left;verticalAlign=top;spacingLeft=4;spacingRight=4;overflow=hidden;rotatable=0;points=[[0,0.5],[1,0.5]];portConstraint=eastwest;fillColor=#ffffff;" vertex="1" parent="xvntZWfGnCIacBmoKaAR-18">
          <mxGeometry y="52" width="140" height="26" as="geometry" />
        </mxCell>
        <mxCell id="xvntZWfGnCIacBmoKaAR-21" value="Sachin Kalakuntla" style="text;strokeColor=none;align=left;verticalAlign=top;spacingLeft=4;spacingRight=4;overflow=hidden;rotatable=0;points=[[0,0.5],[1,0.5]];portConstraint=eastwest;fillColor=#ffffff;" vertex="1" parent="xvntZWfGnCIacBmoKaAR-18">
          <mxGeometry y="78" width="140" height="26" as="geometry" />
        </mxCell>
        <mxCell id="xvntZWfGnCIacBmoKaAR-22" value="Create" style="rounded=1;fillColor=#0057D8;align=center;strokeColor=none;html=1;fontColor=#ffffff;fontSize=12;fontStyle=1" vertex="1" parent="1">
          <mxGeometry x="160" y="770" width="86" height="33" as="geometry" />
        </mxCell>
        <mxCell id="xvntZWfGnCIacBmoKaAR-23" value="Cancel" style="rounded=1;align=center;strokeColor=none;html=1;fontSize=12;fillColor=#CCCCCC;fontColor=#330000;fontStyle=1" vertex="1" parent="1">
          <mxGeometry x="246" y="770" width="86" height="33" as="geometry" />
        </mxCell>
      </root>
    </mxGraphModel>
  </diagram>
</mxfile>
